<svg id="レイヤー_1" data-name="レイヤー 1" xmlns="http://www.w3.org/2000/svg" viewBox="0 0 0 0 "><defs><style>
#レイヤー_1 {
        fill: #111;
        stroke: #111;
        stroke-width: 1px;
        animation: svg 5s ease-in both infinite;
      }
      @keyframes svg {
        0% {
          fill: transparent;
          stroke-dasharray: 2000px;
          stroke-dashoffset: 2000px;
        }
        20%{
          stroke-dashoffset: 0;
        }
        30%{
          fill: transparent;
        }
        50%{
          fill: #111;
        }
        100%{
          fill: #111;
        }
      }
.cls-1{fill:#fff;}
<!-- .cls-2{fill:#fff;}
.cls-3{fill:#fff;}
.cls-4{fill:#fff;} -->
</style></defs>
<path class="cls-1" d="M58.38,21.6l.19.48V19.23c0-.73.15-1.09.44-1.09s.32.2.32.6c0,.2,0,.68,0,1.43-.08,1.9-.12,3.32-.12,4.24,0,1.23,0,2.09.07,2.6.06.75.09,1.13.09,1.16,0,.45-.14.68-.41.68s-.48-.29-.48-.87c0-.42,0-.81,0-1.16.06-.68.1-1.08.1-1.2a8,8,0,0,0-1.8-5.47,6.06,6.06,0,0,0-4.78-2,6.63,6.63,0,0,0-6.09,3.53,18,18,0,0,0-2.18,9.24c0,3.76.73,6.7,2.21,8.83A7,7,0,0,0,52,42.89a6.42,6.42,0,0,0,5-2,8.51,8.51,0,0,0,2-5.62c.05-1,.23-1.5.55-1.5s.48.25.48.75a9.74,9.74,0,0,1-2.27,6.67,7.48,7.48,0,0,1-5.86,2.57,7.7,7.7,0,0,1-6.7-3.55q-2.46-3.56-2.45-9.71,0-6,2.52-9.6A7.78,7.78,0,0,1,52,17.24a6.4,6.4,0,0,1,5,2A11.53,11.53,0,0,1,58.38,21.6Z" transform="translate(-30.14 -17.24)"/>
<path class="cls-1" d="M67.3,27.83q1.76-3.6,5-3.6a4.26,4.26,0,0,1,3.15,1.25,4.47,4.47,0,0,1,1.23,3.25,4.06,4.06,0,0,1-.56,2.2,1.64,1.64,0,0,1-1.42.88c-.77,0-1.16-.41-1.16-1.24s.32-1.12,1-1.12a.81.81,0,0,1,.52.22c.17.15.28.23.35.23.27,0,.41-.45.41-1.35A3.4,3.4,0,0,0,72.23,25a4.19,4.19,0,0,0-4,2.4,12.67,12.67,0,0,0-.93,5.56v3.19a29.57,29.57,0,0,0,.26,5.3q.25.9,1.47.9h1.5c.47,0,.71.14.71.41s-.21.45-.61.45h-.1l-1.12-.11L68.1,43H65.64l-1.31.11-1.12.11h-.1c-.41,0-.61-.13-.61-.41s.24-.45.71-.45h1.5q1.25,0,1.5-.9a29.57,29.57,0,0,0,.26-5.3V27.87q-.06-1.95-.48-2.25a1.39,1.39,0,0,0-.83-.19c-.13,0-.48,0-1.06.07l-1,.08c-.43,0-.64-.16-.64-.49s.18-.49.55-.49c.19,0,.53,0,1,.08.23,0,.48,0,.74,0h.48a8,8,0,0,0,1-.08l.16,0h.16c.45,0,.67.27.67.82Z" transform="translate(-30.14 -17.24)"/>
<path class="cls-1" d="M92.74,32.45c0,.53-.1.84-.3.94a2.29,2.29,0,0,1-1,.15H80.16c-.29,0-.48.05-.56.15a1.59,1.59,0,0,0-.11.75,9.76,9.76,0,0,0,1.75,6.07,5.71,5.71,0,0,0,9.32-.21,6.37,6.37,0,0,0,1-2.14c0-.07.06-.39.16-.94s.25-.64.48-.64.39.18.39.53a5.81,5.81,0,0,1-.35,1.69,7.18,7.18,0,0,1-2.45,3.51,6.36,6.36,0,0,1-3.92,1.26A6.28,6.28,0,0,1,80.58,41a11,11,0,0,1-2-6.84A11.59,11.59,0,0,1,80.66,27,6.37,6.37,0,0,1,86,24.23a6,6,0,0,1,4.8,2.38A8.93,8.93,0,0,1,92.74,32.45Zm-13.12-.34c0,.38.23.57.7.57h11c.36,0,.55-.2.55-.6a8.33,8.33,0,0,0-1.41-4.59A5.15,5.15,0,0,0,85.92,25a5.45,5.45,0,0,0-3.79,1.44,8.09,8.09,0,0,0-2.25,4.08A6.69,6.69,0,0,0,79.62,32.11Z" transform="translate(-30.14 -17.24)"/>
<path class="cls-1" d="M106.79,39.59l0-.3-.13.26a9,9,0,0,1-1.18,1.73,6.23,6.23,0,0,1-4.92,2.29,5.07,5.07,0,0,1-3.73-1.43,5,5,0,0,1-1.44-3.72,5.45,5.45,0,0,1,1-3.3,4.64,4.64,0,0,1,2.74-1.8,17.1,17.1,0,0,1,2.73-.38,7.2,7.2,0,0,0,3.77-1.07,3.22,3.22,0,0,0,1.16-2.72,3.9,3.9,0,0,0-1.26-3A4.75,4.75,0,0,0,102.21,25a5.62,5.62,0,0,0-3.56,1.09,3.34,3.34,0,0,0-1.4,2.74c0,.4.1.6.29.6,0,0,.11-.05.19-.15A.91.91,0,0,1,97.8,29a.85.85,0,0,1,.86-.64c.64,0,1,.41,1,1.21a1.56,1.56,0,0,1-.43,1.1,1.35,1.35,0,0,1-1,.47,1.59,1.59,0,0,1-1.27-.65A2.43,2.43,0,0,1,96.36,29,4.22,4.22,0,0,1,98,25.58a6.29,6.29,0,0,1,4.12-1.35,5.41,5.41,0,0,1,3.93,1.39q1.58,1.53,1.57,4.8v9.36c.07,2,.63,3,1.69,3s1.77-.93,1.77-2.78V38.2c0-.73.11-1.09.41-1.09s.39.25.39.75v1.5c-.07,2.81-.93,4.21-2.6,4.21s-2.38-1.1-2.49-3.31Zm-6.11,3.23a5.47,5.47,0,0,0,4.33-2.1,7.61,7.61,0,0,0,1.78-5.08V32c0-.25-.05-.37-.13-.37a2.49,2.49,0,0,0-.35.45c-.69,1-2.2,1.55-4.55,1.72a10.37,10.37,0,0,0-3.05.57A3.74,3.74,0,0,0,97,35.76a4.58,4.58,0,0,0-.77,2.7,4.24,4.24,0,0,0,1.25,3.12A4.3,4.3,0,0,0,100.68,42.82Z" transform="translate(-30.14 -17.24)"/>
<path class="cls-1" d="M116,26c0,.15,0,.57,0,1.24v7.89a26.26,26.26,0,0,0,.38,5.33c.39,1.61,1.26,2.41,2.63,2.41a2.37,2.37,0,0,0,2.3-1.3,10.3,10.3,0,0,0,.67-4.41v-1.5c0-.53.15-.79.44-.79s.43.26.43.79v.94a21.07,21.07,0,0,1-.32,4.13A3.27,3.27,0,0,1,119,43.57q-3.84,0-3.84-6.46V27.19a4.2,4.2,0,0,0-.15-1.48c-.09-.19-.35-.28-.78-.28-.13,0-.45,0-1,.07l-.73.08c-.41,0-.61-.18-.61-.53s.19-.45.57-.45a7.25,7.25,0,0,1,.77.06,6.68,6.68,0,0,0,.77.05c.66,0,1.07-.23,1.21-.71a5.37,5.37,0,0,0,.13-1.46v-.19a14.4,14.4,0,0,1,.08-2c.06-.27.18-.4.37-.4s.35.2.35.6v.08l-.09,1.8a8.5,8.5,0,0,0-.1,1.43c0,.55.31.82.94.82H118c.24,0,.6,0,1.09-.05s.85-.06,1.08-.06c.44,0,.65.16.65.49s-.23.49-.7.49H120l-1,0c-.17,0-.52,0-1.05-.07s-.8,0-1.06,0C116.35,25.43,116.05,25.6,116,26Z" transform="translate(-30.14 -17.24)"/>
<path class="cls-1" d="M138.75,32.45c0,.53-.1.84-.3.94a2.23,2.23,0,0,1-.94.15H126.18c-.3,0-.49.05-.56.15a1.46,1.46,0,0,0-.11.75,9.83,9.83,0,0,0,1.74,6.07,5.72,5.72,0,0,0,9.33-.21,6.37,6.37,0,0,0,1-2.14,9.25,9.25,0,0,1,.16-.94c.08-.42.24-.64.48-.64s.38.18.38.53a5.81,5.81,0,0,1-.35,1.69,7.11,7.11,0,0,1-2.45,3.51A6.66,6.66,0,0,1,126.59,41a11,11,0,0,1-2-6.84A11.66,11.66,0,0,1,126.67,27,6.39,6.39,0,0,1,132,24.23a6,6,0,0,1,4.8,2.38A8.93,8.93,0,0,1,138.75,32.45Zm-13.12-.34c0,.38.24.57.71.57h11q.54,0,.54-.6a8.33,8.33,0,0,0-1.41-4.59A5.14,5.14,0,0,0,131.94,25a5.43,5.43,0,0,0-3.79,1.44,8.1,8.1,0,0,0-2.26,4.08A6.69,6.69,0,0,0,125.63,32.11Z" transform="translate(-30.14 -17.24)"/>
<path class="cls-1" d="M176.8,39.59l0-.3-.13.26a9,9,0,0,1-1.18,1.73,6.23,6.23,0,0,1-4.91,2.29,5.1,5.1,0,0,1-3.74-1.43,5,5,0,0,1-1.43-3.72,5.38,5.38,0,0,1,1-3.3,4.61,4.61,0,0,1,2.73-1.8,17.24,17.24,0,0,1,2.74-.38,7.16,7.16,0,0,0,3.76-1.07,3.19,3.19,0,0,0,1.16-2.72,3.93,3.93,0,0,0-1.25-3A4.76,4.76,0,0,0,172.23,25a5.6,5.6,0,0,0-3.56,1.09,3.31,3.31,0,0,0-1.4,2.74c0,.4.09.6.28.6s.11-.05.2-.15a1.24,1.24,0,0,1,.06-.23.86.86,0,0,1,.86-.64c.64,0,1,.41,1,1.21a1.56,1.56,0,0,1-.43,1.1,1.34,1.34,0,0,1-1,.47,1.56,1.56,0,0,1-1.26-.65,2.43,2.43,0,0,1-.53-1.56A4.2,4.2,0,0,1,168,25.58a6.28,6.28,0,0,1,4.11-1.35,5.43,5.43,0,0,1,3.94,1.39q1.56,1.53,1.56,4.8v9.36c.07,2,.63,3,1.7,3s1.76-.93,1.76-2.78V38.2c0-.73.12-1.09.41-1.09s.39.25.39.75v1.5q-.1,4.22-2.59,4.21c-1.56,0-2.39-1.1-2.5-3.31Zm-6.11,3.23a5.49,5.49,0,0,0,4.34-2.1,7.65,7.65,0,0,0,1.77-5.08V32c0-.25,0-.37-.13-.37a2.49,2.49,0,0,0-.35.45c-.68,1-2.2,1.55-4.54,1.72a10.38,10.38,0,0,0-3.06.57A3.74,3.74,0,0,0,167,35.76a4.58,4.58,0,0,0-.77,2.7,4.24,4.24,0,0,0,1.25,3.12A4.3,4.3,0,0,0,170.69,42.82Z" transform="translate(-30.14 -17.24)"/>
<path class="cls-2" d="M216,41.73,204,19.31c-.08-.15-.15-.23-.19-.23s-.1.13-.1.38V39.7a4.51,4.51,0,0,0,.37,2,1.32,1.32,0,0,0,1.2.55c.17,0,.5,0,1-.08.26,0,.53,0,.8,0,.45,0,.68.17.68.49s-.23.49-.68.49h-.42a2,2,0,0,0-.39,0l-.93-.11c-.67-.08-1-.11-1.1-.11h-2.09s-.41,0-1.1.11a8.54,8.54,0,0,0-.93.11,2,2,0,0,0-.39,0h-.45c-.45,0-.68-.15-.68-.45s.24-.53.72-.53c.28,0,.55,0,.81,0,.5,0,.84.08,1,.08a1.34,1.34,0,0,0,1.33-.76,5.83,5.83,0,0,0,.23-1.8v-18a10.81,10.81,0,0,0-.16-2.21c-.19-.51-.68-.76-1.47-.76-.32,0-.61,0-.86,0l-.84.05h-.09c-.45,0-.68-.14-.68-.43s.23-.55.68-.55a4.6,4.6,0,0,1,.83.12c1,.07,1.53.11,1.71.11h.8a3.78,3.78,0,0,1,.9-.23c.4,0,.74.27,1,.79l.32.65,11.92,22c.06.17.15.26.25.26s.13-.14.13-.41V21.26a5.07,5.07,0,0,0-.26-1.8,1.29,1.29,0,0,0-1.33-.76l-1,0-.81,0c-.46,0-.68-.18-.68-.53s.22-.45.67-.45h.09l.74.05.9.15a12.35,12.35,0,0,0,1.69.14h.9a11.87,11.87,0,0,0,1.69-.14c.26,0,.57-.08.93-.15l.8-.05c.45,0,.67.15.67.45s-.22.53-.67.53l-.8,0-1,0a1.27,1.27,0,0,0-1.31.75,5.16,5.16,0,0,0-.26,1.8L218.05,24V41.24a3.36,3.36,0,0,1-.26,1.69.6.6,0,0,1-.51.19C216.92,43.12,216.5,42.66,216,41.73Z" transform="translate(-30.14 -17.24)"/>
<path class="cls-2" d="M238.18,32.45c0,.53-.11.84-.31.94a2.23,2.23,0,0,1-.94.15H225.6c-.3,0-.49.05-.56.15a1.46,1.46,0,0,0-.11.75,9.83,9.83,0,0,0,1.74,6.07A5.72,5.72,0,0,0,236,40.3a6.37,6.37,0,0,0,1-2.14,9.25,9.25,0,0,1,.16-.94c.08-.42.24-.64.48-.64s.38.18.38.53a5.5,5.5,0,0,1-.35,1.69,7.11,7.11,0,0,1-2.45,3.51,6.34,6.34,0,0,1-3.92,1.26A6.27,6.27,0,0,1,226,41a10.92,10.92,0,0,1-2-6.84A11.6,11.6,0,0,1,226.1,27a6.36,6.36,0,0,1,5.32-2.76,6,6,0,0,1,4.8,2.38A8.94,8.94,0,0,1,238.18,32.45Zm-13.12-.34c0,.38.23.57.7.57h11q.54,0,.54-.6a8.33,8.33,0,0,0-1.41-4.59A5.14,5.14,0,0,0,231.36,25a5.43,5.43,0,0,0-3.79,1.44,8.1,8.1,0,0,0-2.26,4.08A6.6,6.6,0,0,0,225.06,32.11Z" transform="translate(-30.14 -17.24)"/>
<path class="cls-2" d="M256.35,42.18l-4-15.51c0-.18-.09-.28-.16-.3s-.13.1-.19.3l-.1.34L248.32,42.1c-.22.88-.52,1.32-.93,1.32s-.75-.45-1-1.36l-3.49-14.6a6,6,0,0,0-.48-1.47,1.28,1.28,0,0,0-1.15-.52h-.51a1.36,1.36,0,0,1-.58.11c-.47,0-.7-.18-.7-.53s.23-.45.7-.45l1,0,1.15.12a8.25,8.25,0,0,0,1.08.07c.54,0,1.27,0,2.21-.14.62-.06,1-.09,1.15-.09.43,0,.64.15.64.44s-.29.54-.89.54h-.1c-.3,0-.67,0-1.12-.06s-.7-.05-.77-.05c-.61,0-.92.26-.92.79a5.89,5.89,0,0,0,.19,1.13l3.23,13.7c.13.55.24.83.32.83s.16-.13.22-.38l.07-.33,3.71-15.34c.17-.69.44-1,.8-1s.55.3.7.89L257,41.58c.11.38.19.56.26.56s.11-.1.16-.3l.12-.45,3-13.15a9.8,9.8,0,0,0,.29-1.8c0-.65-.53-1-1.57-1-.21,0-.52,0-.93.05s-.7.06-.89.06c-.37,0-.55-.15-.55-.45s.23-.53.67-.53a8,8,0,0,1,1,.09,18.14,18.14,0,0,0,2.4.14,11.37,11.37,0,0,0,1.22,0l1.18-.14.87,0c.45,0,.67.15.67.45s-.21.53-.64.53a4.86,4.86,0,0,1-.64-.06,4.51,4.51,0,0,0-.64-.05.89.89,0,0,0-.85.35,11.31,11.31,0,0,0-.62,2.12L258.17,42c-.21.95-.51,1.43-.89,1.43S256.56,43,256.35,42.18Z" transform="translate(-30.14 -17.24)"/>
<path class="cls-2" d="M74.83,74.26l-3.17-.12L67,74.1,62.91,74H59.67l-.81,0c-.21,0-.57,0-1,.07l-.91.07h-.15c-.68,0-1-.17-1-.52s.3-.55.91-.55a.61.61,0,0,1,.22,0l1,.11c.44,0,.84.06,1.21.06a1.28,1.28,0,0,0,1.38-.83,6,6,0,0,0,.15-1.74V54.27a5.84,5.84,0,0,0-.15-1.74c-.17-.55-.63-.83-1.38-.83a10.66,10.66,0,0,0-1.21.07l-1,.1h-.18c-.63,0-1-.18-1-.56s.33-.52,1-.52h.18c1.46.14,2.4.21,2.81.21h12l3.14-.21h.22q1.2,0,1.2,1.08c0,.23,0,.69-.07,1.36s-.07,1.43-.07,2.29a27.71,27.71,0,0,0,.14,3.16v.21c0,.81-.18,1.22-.54,1.22s-.55-.35-.55-1v-.28c0-.49.08-1,.11-1.46V56l.11-1.36v-.31c0-1.23-.18-2-.55-2.24a6.64,6.64,0,0,0-3.06-.4H63.86c-1,0-1.68.15-1.9.47A6.77,6.77,0,0,0,61.64,55v5.56c0,.51.1.82.25.92a2.87,2.87,0,0,0,1.28.16H67c1.93,0,2.89-.6,2.89-1.81V58.75l-.18-1.32c0-.62.17-.94.52-.94s.57.33.57,1c0,.16,0,.61-.14,1.35a29.48,29.48,0,0,0-.19,3.1,37.47,37.47,0,0,0,.33,5.28v.31c0,.65-.17,1-.51,1s-.58-.37-.58-1.11V67.2L69.91,66V64.56a2.11,2.11,0,0,0-.62-1.76A4,4,0,0,0,67,62.33H63c-.63,0-1,.08-1.14.23a2.1,2.1,0,0,0-.2,1.2v7.37c0,.65,0,1,0,1.18a1.06,1.06,0,0,0,.69.87,11.28,11.28,0,0,0,2,.1h6.74q3.28,0,4-.57c.48-.38.71-1.43.71-3.15,0-.57,0-1.08,0-1.52l-.08-1.43c0-.69.17-1,.51-1s.48.29.48.87v.14l-.11,1.07c0,.33,0,.81-.06,1.45s0,1.11,0,1.44v2a2,2,0,0,1-.35,1.38A1.76,1.76,0,0,1,74.83,74.26Z" transform="translate(-30.14 -17.24)"/>
<path class="cls-2" d="M96.34,72.25l-.51-.48-4.7-5.27c-.29-.32-.49-.48-.59-.48s-.29.16-.58.49l-5.14,5.7a1.14,1.14,0,0,0-.33.73c0,.34.38.52,1.13.52.29,0,.63,0,1,0l1.24-.07c.56,0,.84.17.84.49s-.23.45-.69.45h-.11l-1.35-.14c-.68-.07-1.69-.1-3-.1a17.4,17.4,0,0,0-2.4.14,7.62,7.62,0,0,1-1.1.1c-.43,0-.65-.14-.65-.41s.27-.53.8-.53a6.82,6.82,0,0,1,.87.06.86.86,0,0,1,.26,0h.22a2.43,2.43,0,0,0,1.79-.91l.72-.8,5.4-6a1.11,1.11,0,0,0,.33-.55c0-.1-.11-.27-.33-.53l-5.14-5.92a2.14,2.14,0,0,0-1.79-.83H81.25c-.54,0-.8-.14-.8-.4s.29-.4.87-.4c.12,0,.5,0,1.13.07,1.26.09,2.15.13,2.66.13s1.44,0,2.63-.13c.6,0,1-.07,1.09-.07.44,0,.66.12.66.38s-.21.42-.62.42h-2.3c-.73,0-1.09.18-1.09.55s.3.72.91,1.39l3.57,4c.29.32.49.49.58.49s.3-.17.59-.49l4-4.38c.51-.56.77-.9.77-1,0-.35-.37-.52-1.1-.52-.22,0-.56,0-1,0s-.8.05-1,.05c-.49,0-.73-.15-.73-.45s.26-.45.77-.45.69,0,1,0l1.28.1a10.2,10.2,0,0,0,1,0c1,0,2.09,0,3.13-.1l1-.07c.51,0,.76.11.76.35s-.26.45-.8.45H99c-.85,0-1.9.68-3.13,2l-4.23,4.69c-.22.23-.33.4-.33.52s.11.3.33.56l5.79,6.46a3.18,3.18,0,0,0,2.19,1.29h1.31c.51,0,.77.14.77.42s-.27.41-.8.41l-1.24-.1c-1.07-.09-1.87-.14-2.41-.14a24.26,24.26,0,0,0-2.7.14c-.6.07-1,.1-1.09.1-.56,0-.84-.14-.84-.41s.27-.42.8-.42h2.19c.7,0,1.06-.19,1.06-.55A1.39,1.39,0,0,0,96.34,72.25Z" transform="translate(-30.14 -17.24)"/>
<path class="cls-2" d="M107.53,60.67a6.76,6.76,0,0,1,6.53-3.93,7.13,7.13,0,0,1,5.61,2.33,9.12,9.12,0,0,1,2.08,6.32,9.83,9.83,0,0,1-2.24,6.7,7.48,7.48,0,0,1-5.89,2.55,6.45,6.45,0,0,1-6.09-3.3v2.92a23.28,23.28,0,0,0,.29,4.95c.2.57.75.85,1.68.85l.76,0c.34,0,.6,0,.77,0a.61.61,0,0,1,.22,0c.51,0,.76.15.76.45s-.23.42-.69.42h-.11l-1.28-.18h-5.82l-1.28.18h-.11q-.69,0-.69-.42c0-.3.27-.45.8-.45l.19,0c.17,0,.43,0,.79,0l.79,0c.93,0,1.49-.28,1.69-.83a22.86,22.86,0,0,0,.29-4.91V60.08c0-1.21-.23-1.9-.55-2.09a1.89,1.89,0,0,0-1-.17c-.15,0-.56,0-1.22.1l-1.1.07c-.49,0-.73-.15-.73-.45s.2-.45.62-.45h.11l1,.07h1.28l.85,0,.86,0a.64.64,0,0,1,.73.73v2.85Zm6.24,13.27a6.25,6.25,0,0,0,5.07-2.26,9.1,9.1,0,0,0,1.89-6A9.46,9.46,0,0,0,119,59.57a5.94,5.94,0,0,0-4.91-2.14,6.3,6.3,0,0,0-6.2,4.4,14.27,14.27,0,0,0-.36,3.67,32.57,32.57,0,0,0,.11,3.37,5.41,5.41,0,0,0,1.3,3A6.19,6.19,0,0,0,113.77,73.94Z" transform="translate(-30.14 -17.24)"/>
<path class="cls-2" d="M140.7,64.35c0,.49-.11.78-.34.87a3.15,3.15,0,0,1-1.08.14h-12.9a1,1,0,0,0-.64.14,1.11,1.11,0,0,0-.13.69,7.91,7.91,0,0,0,2,5.62,7.45,7.45,0,0,0,10.62-.19,5.67,5.67,0,0,0,1.1-2,8.46,8.46,0,0,1,.18-.87c.1-.39.28-.59.55-.59s.43.17.43.49a4.24,4.24,0,0,1-.4,1.56,6.67,6.67,0,0,1-2.79,3.25,8.36,8.36,0,0,1-4.46,1.17,7.83,7.83,0,0,1-6-2.4,8.83,8.83,0,0,1-2.26-6.32,9.4,9.4,0,0,1,2.35-6.63A7.88,7.88,0,0,1,133,56.74,7.44,7.44,0,0,1,138.48,59,7.32,7.32,0,0,1,140.7,64.35ZM125.76,64c0,.35.26.52.8.52H139.1c.41,0,.62-.19.62-.56a6.74,6.74,0,0,0-1.61-4.24,6.24,6.24,0,0,0-5.17-2.33,7.05,7.05,0,0,0-4.32,1.34,7.25,7.25,0,0,0-2.57,3.77A4.93,4.93,0,0,0,125.76,64Z" transform="translate(-30.14 -17.24)"
<path class="cls-2" d="M148.91,60.08a6.31,6.31,0,0,1,5.72-3.34,5.47,5.47,0,0,1,3.59,1.16,3.75,3.75,0,0,1,1.4,3,3.16,3.16,0,0,1-.64,2,2,2,0,0,1-1.62.82c-.87,0-1.31-.38-1.31-1.15s.37-1,1.09-1a1,1,0,0,1,.59.21.93.93,0,0,0,.4.21c.31,0,.47-.42.47-1.25a2.93,2.93,0,0,0-1.13-2.39,4.54,4.54,0,0,0-2.95-.92A5,5,0,0,0,150,59.66a9.87,9.87,0,0,0-1.05,5.14v3a22,22,0,0,0,.29,4.9c.19.56.75.83,1.67.83h1.72c.53,0,.8.13.8.39s-.23.41-.69.41h-.11l-1.28-.1-1.49-.11H147l-1.49.11-1.28.1h-.11c-.46,0-.69-.13-.69-.38s.26-.42.8-.42H146c1,0,1.52-.27,1.72-.83a22.73,22.73,0,0,0,.29-4.9V60.11c-.05-1.2-.23-1.9-.55-2.09a2,2,0,0,0-.95-.17c-.14,0-.54,0-1.2.07l-1.09.07c-.49,0-.73-.15-.73-.45s.2-.45.62-.45c.22,0,.6,0,1.16.07q.41,0,.84,0h.55c.27,0,.66,0,1.17-.08l.18,0h.18a.67.67,0,0,1,.77.75Z" transform="translate(-30.14 -17.24)"
<path class="cls-2" d="M166.84,67.76a22.73,22.73,0,0,0,.29,4.9c.2.56.76.83,1.68.83h1.71c.54,0,.8.13.8.39s-.21.41-.65.41h-.15l-1.27-.1-1.5-.11H165l-1.53.11-1.27.1h-.11c-.47,0-.7-.13-.7-.38s.27-.42.81-.42h1.75c.92,0,1.48-.27,1.67-.83a22,22,0,0,0,.29-4.9V60.11c0-1.2-.23-1.9-.54-2.09a2,2,0,0,0-.95-.17c-.15,0-.55,0-1.2.07l-1,.07h-.11c-.48,0-.73-.15-.73-.45s.21-.45.62-.45h.11l1.1.1H165c.14,0,.36,0,.65,0a4.86,4.86,0,0,1,.66,0c.39,0,.58.26.58.8ZM166,51.91a1.23,1.23,0,0,1,.93.38,1.21,1.21,0,0,1,.38.9,1.16,1.16,0,0,1-.38.89,1.25,1.25,0,0,1-.89.36,1.37,1.37,0,0,1-1-.36,1.19,1.19,0,0,1-.38-.89,1.23,1.23,0,0,1,.38-.92A1.32,1.32,0,0,1,166,51.91Z" transform="translate(-30.14 -17.24)"
<path class="cls-2" d="M189.15,64.35c0,.49-.12.78-.35.87a3.13,3.13,0,0,1-1.07.14H174.82c-.34,0-.55,0-.63.14a1.11,1.11,0,0,0-.13.69,7.91,7.91,0,0,0,2,5.62,7.45,7.45,0,0,0,10.62-.19,5.67,5.67,0,0,0,1.1-2,8.46,8.46,0,0,1,.18-.87c.09-.39.28-.59.54-.59s.44.17.44.49a4.24,4.24,0,0,1-.4,1.56,6.67,6.67,0,0,1-2.79,3.25,8.36,8.36,0,0,1-4.46,1.17,7.82,7.82,0,0,1-6-2.4A8.83,8.83,0,0,1,173,65.92a9.4,9.4,0,0,1,2.35-6.63,7.88,7.88,0,0,1,6.07-2.55A7.45,7.45,0,0,1,186.93,59,7.32,7.32,0,0,1,189.15,64.35Zm-15-.31c0,.35.27.52.81.52h12.54c.41,0,.62-.19.62-.56a6.74,6.74,0,0,0-1.61-4.24,6.25,6.25,0,0,0-5.17-2.33,7.05,7.05,0,0,0-4.32,1.34,7.19,7.19,0,0,0-2.57,3.77A5,5,0,0,0,174.2,64Z" transform="translate(-30.14 -17.24)"
<path class="cls-2" d="M197.35,58.51v1.88a6.66,6.66,0,0,1,3.25-3,9.37,9.37,0,0,1,3.46-.66,7.73,7.73,0,0,1,4.3,1.09,4.77,4.77,0,0,1,2.12,3.08,22.78,22.78,0,0,1,.29,4.27v2.58a22,22,0,0,0,.29,4.9c.19.56.75.83,1.68.83h1.75c.53,0,.8.13.8.39s-.23.41-.69.41h-.11l-1.28-.1-1.53-.11h-2.77l-1.5.11-1.27.1H206c-.43,0-.65-.13-.65-.38s.26-.42.8-.42h1.71c1,0,1.51-.27,1.7-.81a24.18,24.18,0,0,0,.27-4.92V65.15c0-2.94-.34-4.87-1-5.77q-1.45-2-4.89-2c-2.79,0-4.75,1.06-5.86,3.17a9,9,0,0,0-.7,4.13v3a21.77,21.77,0,0,0,.3,4.9c.19.56.75.83,1.67.83H201q.81,0,.81.39c0,.27-.22.41-.66.41H201l-1.27-.1-1.5-.11h-2.77l-1.53.11-1.27.1h-.11c-.46,0-.69-.13-.69-.38s.26-.42.8-.42h1.71c.95,0,1.52-.27,1.71-.83a22,22,0,0,0,.29-4.9V60.11c0-1.2-.23-1.9-.54-2.09a2,2,0,0,0-1-.17c-.14,0-.55,0-1.2.07l-1.1.07q-.72,0-.72-.45c0-.3.21-.45.65-.45.17,0,.55,0,1.13.07l.84,0h.69c.15,0,.38,0,.7,0a5.46,5.46,0,0,1,.69,0c.34,0,.55.08.64.24A3.45,3.45,0,0,1,197.35,58.51Z" transform="translate(-30.14 -17.24)"
<path class="cls-3" d="M229.65,62.13c.32,0,.52,0,.62.17l.22.24a.66.66,0,0,0,.29.11c.34,0,.51-.33.51-1a3.63,3.63,0,0,0-1.66-3,6.55,6.55,0,0,0-4-1.24,7.33,7.33,0,0,0-5.65,2.3,8.76,8.76,0,0,0-2.11,6.15,8.34,8.34,0,0,0,2,5.89,7.13,7.13,0,0,0,5.49,2.17,6.09,6.09,0,0,0,5-2,4.87,4.87,0,0,0,1.24-2.78q0-.87.51-.87t.51.66a5.31,5.31,0,0,1-1.9,3.89,7.21,7.21,0,0,1-5.21,1.81,8.35,8.35,0,0,1-6.27-2.42,8.66,8.66,0,0,1-2.37-6.34,9.17,9.17,0,0,1,2.41-6.6,8.21,8.21,0,0,1,6.27-2.54,7.6,7.6,0,0,1,4.77,1.48,4.41,4.41,0,0,1,1.93,3.63,2.68,2.68,0,0,1-.64,1.84,2,2,0,0,1-1.58.73c-.95,0-1.42-.42-1.42-1.25S228.92,62.13,229.65,62.13Z" transform="translate(-30.14 -17.24)"
<path class="cls-3" d="M251.56,64.35c0,.49-.12.78-.35.87a3.13,3.13,0,0,1-1.07.14H237.23c-.34,0-.55,0-.63.14a1.11,1.11,0,0,0-.13.69,7.91,7.91,0,0,0,2,5.62,7.45,7.45,0,0,0,10.62-.19,5.67,5.67,0,0,0,1.1-2,8.46,8.46,0,0,1,.18-.87c.09-.39.28-.59.54-.59s.44.17.44.49a4.24,4.24,0,0,1-.4,1.56,6.67,6.67,0,0,1-2.79,3.25,8.36,8.36,0,0,1-4.46,1.17,7.82,7.82,0,0,1-6-2.4,8.83,8.83,0,0,1-2.26-6.32,9.4,9.4,0,0,1,2.35-6.63,7.88,7.88,0,0,1,6.07-2.55A7.45,7.45,0,0,1,249.34,59,7.32,7.32,0,0,1,251.56,64.35ZM236.61,64c0,.35.27.52.81.52H250c.41,0,.62-.19.62-.56A6.74,6.74,0,0,0,249,59.76a6.25,6.25,0,0,0-5.17-2.33,7.05,7.05,0,0,0-4.32,1.34,7.19,7.19,0,0,0-2.57,3.77A5,5,0,0,0,236.61,64Z" transform="translate(-30.14 -17.24)"
<path class="cls-3" d="M40.62,125.42c1.15,0,1.72-1,1.72-3.1v-14.4c0-2.23-.82-3.35-2.48-3.35s-2.48.57-2.48,1.7a9.71,9.71,0,0,0,.18,1.52,9.94,9.94,0,0,1,.18,1.53q0,4.46-3.8,4.45a3.54,3.54,0,0,1-2.78-1.13,4.31,4.31,0,0,1-1-3,22.85,22.85,0,0,1,.21-2.35,21.14,21.14,0,0,0,.15-2.4c0-.4-.05-1.22-.15-2.45-.07-.83-.11-1.5-.11-2a2,2,0,0,1,2.23-2.2q1.17,0,2.94.15,4.05.34,11.34.35t11.39-.35q1.77-.15,2.88-.15c1.52,0,2.28.73,2.28,2.2q0,.75-.12,2.22c-.09,1-.13,1.73-.13,2.23s.05,1.33.15,2.4c.14,1.4.2,2.2.2,2.4a4.19,4.19,0,0,1-1,3,3.65,3.65,0,0,1-2.76,1.1c-2.54,0-3.8-1.43-3.8-4.3a11.4,11.4,0,0,1,.15-1.6,11.2,11.2,0,0,0,.15-1.5q0-1.8-2.22-1.8a2.55,2.55,0,0,0-2.08.75,4.26,4.26,0,0,0-.61,2.6v14.4c0,2.07.58,3.1,1.72,3.1a11,11,0,0,0,1.65-.18,12,12,0,0,1,1.64-.17q3,0,3,3,0,3.94-3.79,4c-1,0-2.15-.07-3.5-.2-2-.2-3.76-.3-5.21-.3s-3.23.1-5.22.3c-1.31.13-2.48.2-3.49.2q-3.8,0-3.8-3.65,0-3.3,3.09-3.3a12.31,12.31,0,0,1,1.65.17A10.9,10.9,0,0,0,40.62,125.42Z" transform="translate(-30.14 -17.24)"
<path class="cls-3" d="M88.41,132.62c-2.77,0-4.62-1.1-5.57-3.3a11.9,11.9,0,0,1-8.4,3.3,9.34,9.34,0,0,1-6.38-2.08A6.94,6.94,0,0,1,65.68,125q0-5.25,4.61-6.8a32.73,32.73,0,0,1,4.55-1.1,15.49,15.49,0,0,0,4.89-1.38A2.56,2.56,0,0,0,81,113.37a2.37,2.37,0,0,0-1-1.93,3.88,3.88,0,0,0-2.45-.77c-1.12,0-1.67.35-1.67,1a4.12,4.12,0,0,0,0,.7v.2A2.91,2.91,0,0,1,74.77,115a4.63,4.63,0,0,1-3,1,4.8,4.8,0,0,1-3.35-1.2,3.91,3.91,0,0,1-1.31-3A4.71,4.71,0,0,1,70,107.47a17,17,0,0,1,8-1.55c3.65,0,6.36.55,8.15,1.65S89,111,89,114.27v10.35c0,1.07.27,1.6.81,1.6a6.06,6.06,0,0,0,.76,0,1.23,1.23,0,0,1,.35,0,2.72,2.72,0,0,1,2,.8,2.63,2.63,0,0,1,.81,2,3.17,3.17,0,0,1-1.5,2.7A6.48,6.48,0,0,1,88.41,132.62Zm-7.34-10.7v-1.1c-.24.13-1.72.55-4.45,1.25-1.86.47-2.79,1.18-2.79,2.15,0,1.53.91,2.3,2.73,2.3Q81.07,126.52,81.07,121.92Z" transform="translate(-30.14 -17.24)"
<path class="cls-3" d="M105.93,113.47v2l-.05,3.1-.1,3.35q-.06,1.65-.06,1.35c0,2,.65,3,1.93,3s1.82-.88,1.82-2.65a2.83,2.83,0,0,0,0-.6v-.65a4.78,4.78,0,0,1,0-.5,2.4,2.4,0,0,1,2.73-2.7q3.2,0,3.19,5a8,8,0,0,1-2.38,6.17,9.28,9.28,0,0,1-6.63,2.23q-8.36,0-8.35-8.7,0-1.4.12-4.2c.09-1.87.13-3.27.13-4.2v-1.6a3.25,3.25,0,0,0-.23-1.58c-.15-.21-.51-.32-1.09-.32h-.8a1.92,1.92,0,0,1-1.57-.73,2.77,2.77,0,0,1-.61-1.87,3.17,3.17,0,0,1,.63-2,1.84,1.84,0,0,1,1.49-.82h1c.81,0,1.28-.23,1.41-.7a4,4,0,0,0,.16-1.35v-2.45a2.73,2.73,0,0,1,.93-2.4,6.46,6.46,0,0,1,3.42-.65,4.11,4.11,0,0,1,2.4.5c.43.33.64,1.07.64,2.2v2.7a3.43,3.43,0,0,0,.28,1.8c.18.23.66.35,1.44.35h3.64c2,0,3,.92,3,2.75s-.91,2.65-2.73,2.65H107.4c-.71,0-1.14.12-1.27.35A2.22,2.22,0,0,0,105.93,113.47Z" transform="translate(-30.14 -17.24)"
<path class="cls-3" d="M127.34,105.92a10.21,10.21,0,0,1,6.58,2.15c.14-1.4,1.05-2.1,2.74-2.1s2.58.6,2.58,1.8a5.45,5.45,0,0,1-.2,1.35,9.45,9.45,0,0,0-.16,1.7c0,.1,0,.37.05.8V113a2.35,2.35,0,0,1-2.68,2.65,4.09,4.09,0,0,1-3.34-1.9,5.12,5.12,0,0,0-4.2-2.3c-2,0-2.94.67-2.94,2a1.49,1.49,0,0,0,1,1.47A29.14,29.14,0,0,0,131.8,116a21.14,21.14,0,0,1,4.93,1.35,6.75,6.75,0,0,1,2.61,2.15,7.14,7.14,0,0,1,1.26,4.2,8,8,0,0,1-3,6.35,10.94,10.94,0,0,1-7.41,2.55,13,13,0,0,1-8.1-2.8,2.21,2.21,0,0,1-2.53,2.45c-1.83,0-2.74-.73-2.74-2.2,0-.33,0-.85.1-1.55s.1-1.22.1-1.55,0-.75-.07-1.35-.08-1.05-.08-1.35c0-1.5,1-2.25,2.84-2.25a4.24,4.24,0,0,1,2.07.4,5.08,5.08,0,0,1,1.52,1.55,7.6,7.6,0,0,0,2.33,2.42,6.67,6.67,0,0,0,3.14.58c2.43,0,3.64-.75,3.64-2.25,0-1-1-1.75-2.93-2.15l-2.94-.6a23.12,23.12,0,0,1-5.09-1.5,5.36,5.36,0,0,1-2.35-2.38,7.85,7.85,0,0,1-.86-3.72,8,8,0,0,1,2.5-6.1A9.21,9.21,0,0,1,127.34,105.92Z" transform="translate(-30.14 -17.24)"
<path class="cls-3" d="M162.68,130.37v-2a10.76,10.76,0,0,1-8.86,4.2,9,9,0,0,1-4.25-1,6,6,0,0,1-2.76-2.68q-.84-1.66-.84-6.17V115a4.92,4.92,0,0,0-.23-2,.85.85,0,0,0-.73-.3h-.51a1.91,1.91,0,0,1-.5,0c-1.52,0-2.28-.92-2.28-2.75q0-3.34,3.09-3.35a13.85,13.85,0,0,1,1.87.2,13.85,13.85,0,0,0,1.87.2,12.82,12.82,0,0,0,1.83-.2,12.71,12.71,0,0,1,1.82-.2c1,0,1.52.7,1.52,2.1l.1,13.3c.1,2.6,1.14,3.9,3.14,3.9q4.54,0,4.55-6.25V115c0-1.7-.39-2.55-1.16-2.55a3.44,3.44,0,0,0-.79.12,3,3,0,0,1-.78.13c-1.25,0-1.87-.88-1.87-2.65q0-3.45,2.83-3.45a16.42,16.42,0,0,1,2.08.2,16,16,0,0,0,2,.2c.14,0,.86-.08,2.18-.25a14.76,14.76,0,0,1,1.67-.15q1.62,0,1.62,1.8v15.2c0,1.67.32,2.5,1,2.5a2.17,2.17,0,0,0,.71-.1,2.77,2.77,0,0,1,.86-.1c1.45,0,2.18.87,2.18,2.6q0,3.45-3,3.45a12.5,12.5,0,0,1-1.8-.2,12.25,12.25,0,0,0-1.79-.2,10.32,10.32,0,0,0-1.65.2,10.36,10.36,0,0,1-1.64.2C163.17,132,162.68,131.44,162.68,130.37Z" transform="translate(-30.14 -17.24)"
<path class="cls-3" d="M185.86,108.12v2.3q3.79-4.5,8.46-4.5a7.53,7.53,0,0,1,6.43,3.75,19.29,19.29,0,0,1,4.32-3,10.25,10.25,0,0,1,4.18-.8c3.21,0,5.6,1,7.19,3.15q1.62,2.15,1.62,6.9v7.65q0,2.55,1,2.55a3.06,3.06,0,0,0,.81-.15,2.1,2.1,0,0,1,.76-.1c1.49,0,2.23.87,2.23,2.6A3.72,3.72,0,0,1,222,131a2.67,2.67,0,0,1-2.13.95q-.15,0-1.47-.15l-1.11-.15a17.42,17.42,0,0,0-2.13-.1,24.45,24.45,0,0,0-3.13.2,20.32,20.32,0,0,1-2.13.2,2.5,2.5,0,0,1-2-.93,3.46,3.46,0,0,1-.78-2.32c0-1.53.62-2.42,1.87-2.65.64-.1,1-.28,1.14-.55a7.7,7.7,0,0,0,.17-2.2v-5.15a9.61,9.61,0,0,0-.68-4.38,2.75,2.75,0,0,0-2.61-1.17c-2.86,0-4.3,2-4.3,6v4.65a9.06,9.06,0,0,0,.15,2.15,1,1,0,0,0,.81.6c1,.23,1.57,1.07,1.57,2.5q0,3.41-2.83,3.4a11.44,11.44,0,0,1-1.57-.15,18.39,18.39,0,0,0-2.23-.25,12.5,12.5,0,0,0-1.8.2,12.25,12.25,0,0,1-1.79.2c-1.66,0-2.48-1.05-2.48-3.15,0-1.5.52-2.38,1.56-2.65A1.15,1.15,0,0,0,195,125c0-.9.05-1.45.05-1.65v-5.65a8,8,0,0,0-.69-4,2.65,2.65,0,0,0-2.45-1.1q-4.45,0-4.46,6v6a1.63,1.63,0,0,0,.21,1,1.94,1.94,0,0,0,1,.38,2.29,2.29,0,0,1,2,2.6q0,3.25-2.78,3.25a24.67,24.67,0,0,1-2.56-.2,24.67,24.67,0,0,0-2.56-.2,19.34,19.34,0,0,0-2.37.15c-1.35.17-2.22.25-2.59.25a2.88,2.88,0,0,1-2.25-.93,3.36,3.36,0,0,1-.83-2.37q0-2.85,2.43-2.85a3,3,0,0,1,.91.17,2.48,2.48,0,0,0,.76.18c.57,0,.86-.93.86-2.8v-8.1c0-1.9-.29-2.85-.86-2.85a3.73,3.73,0,0,0-.79.17,3.29,3.29,0,0,1-.88.18c-1.62,0-2.43-.93-2.43-2.8a3.47,3.47,0,0,1,.83-2.4,2.8,2.8,0,0,1,2.2-.95,13.26,13.26,0,0,1,1.67.25A8.4,8.4,0,0,0,181,107a12.22,12.22,0,0,0,1.8-.2,12.22,12.22,0,0,1,1.8-.2C185.42,106.62,185.86,107.12,185.86,108.12Z" transform="translate(-30.14 -17.24)"
<path class="cls-3" d="M235,106.62c.94,0,1.42.65,1.42,1.95v15.05q0,2.55,1,2.55a3.47,3.47,0,0,0,.73-.13,4.21,4.21,0,0,1,.89-.12c1.42,0,2.13.87,2.13,2.6q0,3.45-3,3.45c-.34,0-1.28-.08-2.84-.25a31,31,0,0,0-3.24-.15c-.6,0-1.5.07-2.68.2s-2.06.2-2.63.2a2.9,2.9,0,0,1-2.23-.93,3.34,3.34,0,0,1-.86-2.37q0-2.85,2.43-2.85l1.32.3a1.63,1.63,0,0,0,.35,0c.61,0,.91-.93.91-2.8v-8.1c0-1.9-.29-2.85-.86-2.85a4.72,4.72,0,0,0-.91.25,4.18,4.18,0,0,1-.81.1c-1.62,0-2.43-.93-2.43-2.8a3.45,3.45,0,0,1,.86-2.43,3,3,0,0,1,2.28-.92,12.61,12.61,0,0,1,1.62.15,20.83,20.83,0,0,0,2.83.25,16.51,16.51,0,0,0,2.23-.2C234.41,106.69,234.92,106.62,235,106.62Zm-2.89-1.9a4.48,4.48,0,0,1-3.24-1.35,4.5,4.5,0,0,1,0-6.43,4.7,4.7,0,0,1,6.53,0,4.55,4.55,0,0,1,0,6.45A4.44,4.44,0,0,1,232.13,104.72Z" transform="translate(-30.14 -17.24)"
<path class="cls-3" d="M249.55,132.62a5.1,5.1,0,0,1-5.11-5.1,4.84,4.84,0,0,1,1.49-3.58,5.19,5.19,0,0,1,7.24,0,4.88,4.88,0,0,1,1.49,3.58,5.1,5.1,0,0,1-5.11,5.1Z" transform="translate(-30.14 -17.24)"
<path class="cls-3" d="M263.93,125.42c.67,0,1.09-.43,1.26-1.3a13.07,13.07,0,0,0,.1-2.1V108.17a12.07,12.07,0,0,0-.1-2c-.17-.87-.59-1.3-1.26-1.3a6.39,6.39,0,0,0-1.19.17,6,6,0,0,1-1.24.18,2.43,2.43,0,0,1-1.95-1,3.53,3.53,0,0,1-.79-2.35,3.38,3.38,0,0,1,3.65-3.65q.75,0,3.54.3a35.22,35.22,0,0,0,3.65.2c.94,0,2.3-.08,4.07-.25s2.95-.25,3.52-.25c2.46,0,3.7,1.22,3.7,3.65a3.59,3.59,0,0,1-.79,2.35,2.43,2.43,0,0,1-2,1,6.14,6.14,0,0,1-1.21-.18,6.86,6.86,0,0,0-1.22-.17c-.91,0-1.36,1.12-1.36,3.35V122c0,2.27.45,3.4,1.36,3.4a6.22,6.22,0,0,0,1.22-.18,6.78,6.78,0,0,1,1.21-.17,2.43,2.43,0,0,1,2,1,3.59,3.59,0,0,1,.79,2.35,3.7,3.7,0,0,1-1,2.65,3.29,3.29,0,0,1-2.51,1,1.64,1.64,0,0,1-.45,0l-3.19-.4a22.11,22.11,0,0,0-2.69-.15,46.44,46.44,0,0,0-4.75.25c-2,.2-3.29.3-3.9.3a3.73,3.73,0,0,1-2.86-6,2.52,2.52,0,0,1,2-.92,6.5,6.5,0,0,1,1.19.17A5.8,5.8,0,0,0,263.93,125.42Z" transform="translate(-30.14 -17.24)"
<path class="cls-3" d="M111.39,153.17a7.9,7.9,0,0,0-3.28-.65c-2.58,0-3.56,1.21-3.56,2.23,0,1.39,1.12,2.1,3.61,2.89,3,1,4.54,2.14,4.54,4.16,0,2.25-2.14,4-6.15,4a10.72,10.72,0,0,1-4.44-.89l.56-1.28a9.42,9.42,0,0,0,4,.87c2.49,0,4-1,4-2.54s-1-2.25-3.42-3c-2.81-.8-4.71-2-4.71-4,0-2.15,2.29-3.73,5.69-3.73a9.59,9.59,0,0,1,3.81.67Z" transform="translate(-30.14 -17.24)"
<path class="cls-4" d="M116.88,153.67c-.78,0-1.32-.46-1.32-1s.57-1,1.35-1,1.32.46,1.32,1S117.66,153.67,116.88,153.67Zm1,11.9h-2V155.45h2Z" transform="translate(-30.14 -17.24)"
<path class="cls-4" d="M132.58,165.57h-2v-6a2.81,2.81,0,0,0-3.11-3.1c-1.73,0-3.49,1.12-3.49,2.88v6.2h-2v-7.52c0-1,0-1.8-.1-2.61h1.81l.12,1.65h0a5.09,5.09,0,0,1,4.27-1.88c1.66,0,4.49.76,4.49,4.2Z" transform="translate(-30.14 -17.24)"
<path class="cls-4" d="M145.5,165.2a10.89,10.89,0,0,1-3.61.57c-3.81,0-6.33-2.06-6.33-5.16s2.71-5.4,6.82-5.4a9.35,9.35,0,0,1,3.19.54l-.51,1.24a6.76,6.76,0,0,0-2.73-.52c-3.08,0-4.69,1.88-4.69,4.05,0,2.45,1.93,4,4.61,4a8.44,8.44,0,0,0,2.88-.5Z" transform="translate(-30.14 -17.24)"
<path class="cls-4" d="M157.76,165.14a12.28,12.28,0,0,1-4.18.63c-3.88,0-6.2-2.08-6.2-5.1s2.35-5.46,5.94-5.46c4.1,0,5.15,2.86,5.15,4.62,0,.36,0,.62-.05.86h-9.06c0,2.8,2.12,3.86,4.52,3.86a10.71,10.71,0,0,0,3.49-.52Zm-1.29-5.6a3,3,0,0,0-3.35-3.16,3.57,3.57,0,0,0-3.71,3.16Z" transform="translate(-30.14 -17.24)"
<path class="cls-4" d="M177.2,165.57H166.38v-.95l1.78-1.43c4.35-3.34,6.55-5.36,6.55-7.62,0-1.49-.86-2.86-3.49-2.86a7.22,7.22,0,0,0-3.67,1.15l-.68-1.08a8.54,8.54,0,0,1,4.74-1.35c3.68,0,5.15,2,5.15,3.95,0,2.62-2.42,4.84-6.2,7.74l-1.44,1.15v0h8.08Z" transform="translate(-30.14 -17.24)"
<path class="cls-4" d="M179.62,158.66c0-4.86,2.49-7.21,5.91-7.21s5.59,2.48,5.59,7c0,4.82-2.22,7.31-5.86,7.31C181.94,165.79,179.62,163.3,179.62,158.66Zm9.45-.11c0-3.47-1.1-5.86-3.67-5.86-2.17,0-3.71,2.21-3.71,5.86s1.35,6,3.64,6C188,164.53,189.07,161.86,189.07,158.55Z" transform="translate(-30.14 -17.24)"
<path class="cls-4" d="M204.11,165.57H193.29v-.95l1.79-1.43c4.34-3.34,6.54-5.36,6.54-7.62,0-1.49-.86-2.86-3.49-2.86a7.15,7.15,0,0,0-3.66,1.15l-.69-1.08a8.54,8.54,0,0,1,4.74-1.35c3.68,0,5.15,2,5.15,3.95,0,2.62-2.42,4.84-6.2,7.74L196,164.27v0h8.08Z" transform="translate(-30.14 -17.24)"
<path class="cls-4" d="M206.53,158.66c0-4.86,2.49-7.21,5.91-7.21s5.59,2.48,5.59,7c0,4.82-2.22,7.31-5.86,7.31C208.85,165.79,206.53,163.3,206.53,158.66Zm9.45-.11c0-3.47-1.1-5.86-3.66-5.86-2.18,0-3.72,2.21-3.72,5.86s1.35,6,3.64,6C215,164.53,216,161.86,216,158.55Z" transform="translate(-30.14 -17.24)"/></svg>